<svg xmlns="http://www.w3.org/2000/svg" version="1.1" xmlns:xlink="http://www.w3.org/1999/xlink" width="512" height="512" x="0" y="0" viewBox="0 0 100 100" style="enable-background:new 0 0 512 512" xml:space="preserve" class=""><g><path d="M2.671 87.278c0 5.643 4.598 10.222 10.222 10.222 4.997 0 9.139-3.591 10.032-8.322h33.592c.893 4.731 5.035 8.322 10.032 8.322 5.624 0 10.203-4.579 10.203-10.222 0-2.527-.969-4.826-2.489-6.612l8.037-9.234c1.444.779 3.059 1.273 4.807 1.273 5.643 0 10.222-4.579 10.222-10.222 0-4.997-3.591-9.139-8.322-10.032V22.754c4.731-.893 8.322-5.035 8.322-10.032C97.329 7.098 92.75 2.5 87.107 2.5c-4.978 0-9.12 3.61-10.013 8.322H43.616C42.723 6.11 38.581 2.5 33.584 2.5c-5.624 0-10.222 4.598-10.222 10.222 0 2.47.931 4.712 2.394 6.498l-8.113 9.329c-1.425-.76-3.021-1.235-4.75-1.235-5.624 0-10.222 4.579-10.222 10.222 0 4.978 3.61 9.139 8.322 10.032v29.678c-4.712.893-8.322 5.054-8.322 10.032zm29.013-64.524v12.882h-8.778a10.228 10.228 0 0 0-2.299-4.731l8.056-9.272c.95.513 1.957.912 3.021 1.121zm11.932-8.132h33.478a10.087 10.087 0 0 0 2.261 4.655L71.28 28.53c-1.425-.76-3.021-1.216-4.731-1.216-4.997 0-9.139 3.591-10.032 8.322H35.484V22.754a10.209 10.209 0 0 0 8.132-8.132zm41.591 8.132v29.697a10.211 10.211 0 0 0-8.113 8.132H68.43V47.568c4.731-.893 8.303-5.054 8.303-10.032 0-2.546-.969-4.845-2.489-6.631L82.3 21.69c.912.475 1.881.874 2.907 1.064zM68.449 77.246V64.383h8.664c.323 1.767 1.14 3.344 2.242 4.655l-8.056 9.253c-.893-.475-1.843-.855-2.85-1.045zm-11.932 8.132H22.925c-.342-1.786-1.159-3.382-2.299-4.712l8.132-9.234c1.444.779 3.078 1.273 4.826 1.273 4.997 0 9.139-3.591 10.032-8.322h21.033v12.863a10.233 10.233 0 0 0-8.132 8.132zm0-45.942c.779 4.104 4.009 7.353 8.113 8.132v13.015H43.616c-.779-4.104-4.009-7.353-8.113-8.132V39.436zm-33.592 0h8.778v13.015c-4.731.893-8.322 5.035-8.322 10.032 0 2.508.95 4.769 2.451 6.555l-8.151 9.253c-.893-.475-1.843-.855-2.85-1.045V47.568c4.085-.779 7.315-4.028 8.094-8.132z" fill="#000000" opacity="1" data-original="#000000" class=""></path></g></svg>