<svg xmlns="http://www.w3.org/2000/svg" version="1.1" xmlns:xlink="http://www.w3.org/1999/xlink" width="512" height="512" x="0" y="0" viewBox="0 0 26 26" style="enable-background:new 0 0 512 512" xml:space="preserve" class=""><g><path d="M7.4 25h11.2c3.529 0 6.4-2.871 6.4-6.4V7.4C25 3.87 22.129 1 18.6 1H7.4C3.871 1 1 3.871 1 7.4v11.2C1 22.129 3.871 25 7.4 25zM3 7.4C3 4.974 4.974 3 7.4 3h11.2C21.026 3 23 4.974 23 7.4v11.2c0 2.426-1.974 4.4-4.4 4.4H7.4A4.405 4.405 0 0 1 3 18.6z" fill="#000000" opacity="1" data-original="#000000" class=""></path><path d="M7.915 16.33a1 1 0 1 0 1.414-1.415L7.414 13l1.915-1.916A1 1 0 1 0 7.915 9.67l-2.622 2.623a1 1 0 0 0 0 1.414zM16.67 16.33a1 1 0 0 0 1.415 0l2.622-2.623a1 1 0 0 0 0-1.414L18.085 9.67a1 1 0 1 0-1.414 1.414L18.586 13l-1.915 1.915a1 1 0 0 0 0 1.414zM11.769 19.386a1 1 0 0 0 1.17-.792l2.084-10.809a1 1 0 1 0-1.962-.379l-2.084 10.808a1 1 0 0 0 .792 1.172z" fill="#000000" opacity="1" data-original="#000000" class=""></path></g></svg>