<svg xmlns="http://www.w3.org/2000/svg" version="1.1" xmlns:xlink="http://www.w3.org/1999/xlink" width="512" height="512" x="0" y="0" viewBox="0 0 512 512.001" style="enable-background:new 0 0 512 512" xml:space="preserve" class=""><g><path d="M430.242 0H15.566C6.976 0 0 6.973 0 15.566v480.868C0 505.027 6.977 512 15.566 512h414.676c8.602 0 15.567-6.973 15.567-15.566V15.566C445.809 6.973 438.848 0 430.242 0zM31.137 31.133h30.418v449.734H31.137zm383.539 449.734H92.69V31.133h321.985zm0 0" fill="#000000" opacity="1" data-original="#000000" class=""></path><path d="m155.344 100.703.297-.168v48.113c0 8.598 6.972 15.567 15.57 15.567 8.598 0 15.566-6.969 15.566-15.567V74.023c0-11.863-12.785-19.375-23.152-13.593L140.18 73.512c-7.512 4.187-10.203 13.672-6.012 21.18 4.187 7.507 13.668 10.199 21.176 6.011zM245.207 164.215h8.824c20.121 0 36.489-16.367 36.489-36.492V89.449c0-20.12-16.368-36.488-36.489-36.488h-8.824c-20.11 0-36.477 16.367-36.477 36.488v38.278c0 20.12 16.364 36.488 36.477 36.488zm-5.344-74.766c0-2.945 2.399-5.355 5.344-5.355h8.824c2.946 0 5.352 2.41 5.352 5.355v38.278a5.357 5.357 0 0 1-5.352 5.351h-8.824a5.35 5.35 0 0 1-5.344-5.351zM328.938 100.703l.296-.168v48.113c0 8.598 6.97 15.567 15.567 15.567 8.597 0 15.57-6.969 15.57-15.567V74.023c0-11.863-12.789-19.375-23.152-13.593l-23.45 13.082c-7.507 4.187-10.199 13.672-6.011 21.18 4.187 7.507 13.672 10.199 21.18 6.011zM145.234 386.36h64.887l-3.844 41.542h-20.402c-8.598 0-15.566 6.973-15.566 15.57s6.968 15.567 15.566 15.567h135.617c8.598 0 15.57-6.969 15.57-15.566s-6.972-15.57-15.57-15.57h-20.406l-3.84-41.544h64.883c17.55 0 31.832-14.277 31.832-31.828V228.684c0-17.551-14.281-31.829-31.832-31.829H145.234c-17.55 0-31.828 14.278-31.828 31.829V354.53c0 17.551 14.278 31.828 31.828 31.828zm124.59 41.542h-32.277l3.84-41.543h24.597zM144.54 233.18a5.19 5.19 0 0 1 5.188-5.192h207.91a5.19 5.19 0 0 1 5.187 5.192v116.86a5.19 5.19 0 0 1-5.187 5.187h-207.91a5.19 5.19 0 0 1-5.188-5.188zm0 0" fill="#000000" opacity="1" data-original="#000000" class=""></path><path d="M192.402 337.273c5.871 6.286 15.7 6.653 22.004.79.07-.063.133-.125.196-.2 5.625-5.394 6.308-14.043 1.878-20.246-.796-1.117.672.535-22.667-24.535l21.39-22.988c5.852-6.29 5.5-16.137-.8-21.992-6.29-5.864-16.137-5.512-22 .789l-31.25 33.582c-5.551 5.98-5.551 15.238 0 21.215zM290.883 317.637c-4.43 6.195-3.727 14.84 1.879 20.226 4.285 5.028 15.347 6.77 22.199-.59l31.246-33.585c5.566-5.977 5.566-15.235 0-21.215l-31.246-33.582c-5.856-6.301-15.703-6.653-22.004-.79-6.289 5.852-6.652 15.704-.789 21.993l21.379 22.988c-23.098 24.824-21.895 23.45-22.664 24.555zM239.75 341.629c8.047 2.32 16.828-2.227 19.262-10.668 3.57-12.469 15.683-54.676 19.273-67.176 2.375-8.262-2.41-16.887-10.672-19.254-8.27-2.375-16.883 2.41-19.25 10.668-11.648 40.551-7.16 24.922-19.285 67.172-2.363 8.27 2.41 16.883 10.672 19.258zm0 0" fill="#000000" opacity="1" data-original="#000000" class=""></path></g></svg>