<svg xmlns="http://www.w3.org/2000/svg" version="1.1" xmlns:xlink="http://www.w3.org/1999/xlink" width="512" height="512" x="0" y="0" viewBox="0 0 512 512" style="enable-background:new 0 0 512 512" xml:space="preserve" class=""><g><path fill-rule="evenodd" d="M70.1 139.98h90.553v10.334c-2.093-.737-4.306-1.23-6.769-1.23H108.73c-3.938-2.831-8.736-4.429-13.656-4.429-12.797 0-23.253 10.338-23.253 23.252 0 4.675 1.475 9.104 3.937 12.796v226.009H436.24V180.581c2.339-3.692 3.815-7.999 3.815-12.673 0-12.915-10.457-23.252-23.252-23.252-4.922 0-9.72 1.598-13.657 4.429h-45.154c-2.335 0-4.675.493-6.766 1.23V139.98h90.672c12.181 0 22.269 9.965 22.269 22.146v257.875H47.831V162.126c0-12.181 9.964-22.146 22.269-22.146zm31.865-67.418c-5.909 0-10.706 4.671-10.706 10.579 0 5.536 4.184 10.088 9.596 10.702l12.919 22.146c.984 2.094 3.077 3.569 5.537 3.569h26.698c2.335 0 4.552-1.229 5.54-3.447 9.715-19.56 24.727-35.925 43.055-47.365 17.845-10.953 38.88-17.348 61.397-17.348 22.515 0 43.432 6.395 61.268 17.348 18.209 11.44 33.094 27.678 42.818 46.997.984 2.212 3.196 3.815 5.782 3.815h26.698c2.089 0 4.183-1.11 5.413-3.077l13.042-22.639c5.413-.614 9.597-5.166 9.597-10.702 0-5.908-4.799-10.579-10.703-10.579-5.908 0-10.706 4.671-10.706 10.579 0 1.598.374 3.078.983 4.429L389 107.008h-19.316c-10.707-19.934-26.699-36.91-45.892-48.842C304.104 45.986 280.851 38.97 256 38.97c-24.979 0-48.104 7.016-67.915 19.197-19.192 11.932-35.189 28.908-45.887 48.842H122.88l-11.2-19.439c.62-1.352.988-2.832.988-4.429 0-5.909-4.798-10.579-10.703-10.579zm160.184 193.524c40.602-6.396 72.344-39.245 76.651-80.583V96.306h-42.2l-34.452-12.797v10.703c0 3.446-2.704 6.154-6.149 6.154-3.564 0-6.277-2.708-6.277-6.154V83.509l-34.448 12.797h-42.198v89.196c4.306 41.338 36.048 74.188 76.646 80.583v-11.194c0-3.446 2.713-6.273 6.277-6.273 3.446 0 6.149 2.827 6.149 6.273v11.195zM256 136.903c11.931 0 21.654 9.596 21.654 21.655 0 9.228-5.782 17.103-13.902 20.181v32.476h-15.624v-32.476c-8.121-3.078-13.903-10.953-13.903-20.181.001-12.059 9.715-21.655 21.775-21.655zm101.992 37.155c-3.442 0-6.273-2.705-6.273-6.15 0-3.564 2.831-6.272 6.273-6.272h50.197c1.971-2.708 5.044-4.43 8.613-4.43 5.904 0 10.702 4.798 10.702 10.702 0 5.786-4.798 10.584-10.702 10.584-3.569 0-6.643-1.725-8.613-4.434zm-254.305-12.423h50.197c3.446 0 6.273 2.708 6.273 6.272 0 3.446-2.828 6.15-6.273 6.15h-50.197c-1.968 2.708-5.044 4.434-8.612 4.434-5.905 0-10.707-4.798-10.707-10.584 0-5.904 4.802-10.702 10.707-10.702 3.568.001 6.644 1.722 8.612 4.43zm296.504 86.615-11.316-19.565h-19.193c-10.707 20.057-26.575 36.91-45.892 48.846-19.687 12.304-42.939 19.315-67.79 19.315-24.979 0-48.104-7.011-67.915-19.315-19.192-11.936-35.189-28.789-45.887-48.846H122.88l-11.2 19.565c.62 1.229.988 2.828.988 4.307 0 5.904-4.798 10.703-10.703 10.703-5.909 0-10.706-4.799-10.706-10.703 0-5.536 4.184-10.088 9.596-10.579l12.919-22.27c.984-2.095 3.077-3.446 5.537-3.446h26.698c2.335 0 4.552 1.229 5.54 3.446 9.715 19.438 24.727 35.921 43.055 47.243 17.845 11.071 38.88 17.471 61.397 17.471 22.392 0 43.432-6.4 61.268-17.471 18.335-11.322 33.34-27.805 43.063-47.243.983-2.095 3.077-3.446 5.536-3.446h26.33c2.212-.123 4.552.984 5.781 3.072l13.042 22.644c5.413.491 9.597 5.043 9.597 10.579 0 5.904-4.799 10.703-10.703 10.703-5.908 0-10.706-4.799-10.706-10.703-.001-1.479.373-3.078.982-4.307zM5.996 432.429h166.465v10.456c0 4.43 1.848 8.614 4.921 11.691 2.955 2.95 7.133 4.916 11.686 4.916H322.93c4.425 0 8.613-1.843 11.687-4.916 2.954-3.077 4.92-7.138 4.92-11.691v-10.456h166.467v20.299c0 11.199-9.105 20.303-20.304 20.303H26.299c-11.199 0-20.303-9.104-20.303-20.303zm179.012 0h141.983v10.456c0 1.107-.491 2.094-1.233 2.833-.737.737-1.721 1.229-2.827 1.229H189.068c-1.106 0-2.09-.492-2.827-1.229h-.123c-.737-.738-1.11-1.725-1.11-2.833z" clip-rule="evenodd" fill="#000000" opacity="1" data-original="#000000"></path></g></svg>